<svg height="512" viewBox="0 0 50 60" width="512" xmlns="http://www.w3.org/2000/svg"><g id="Page-1" fill="none" fill-rule="evenodd"><g id="015---Potato-Chips" fill="rgb(0,0,0)" fill-rule="nonzero"><path id="Shape" d="m4.056 59.1c.65042165.3477679 1.43945622.3093347 2.053-.1l.891-.6 1.89 1.26c.6718445.4479544 1.5471555.4479544 2.219 0l1.891-1.26 1.89 1.26c.6718445.4479544 1.5471555.4479544 2.219 0l1.891-1.26 1.89 1.26c.6718445.4479544 1.5471555.4479544 2.219 0l1.891-1.26 1.89 1.26c.6718445.4479544 1.5471555.4479544 2.219 0l1.891-1.26 1.89 1.26c.6718445.4479544 1.5471555.4479544 2.219 0l1.891-1.26 1.89 1.26c.671435.4493049 1.547565.4493049 2.219 0l1.891-1.26.891.594c.6132365.4086127 1.4014875.446908 2.0514454.0996645s1.0563146-1.0237644 1.0575546-1.7606645v-4.2c1.8905934-7.5691583 2.8973136-15.3319773 3-23.133-.102918-7.8000179-1.1096364-15.5618168-3-23.13v-4.2c.0020818-.73851475-.4029847-1.41807405-1.053584-1.76754359-.6505993-.34946953-1.4408356-.3119674-2.055416.09754359l-.891.6-1.89-1.264c-.6718445-.44795443-1.5471555-.44795443-2.219 0l-1.891 1.264-1.89-1.264c-.6718445-.44795443-1.5471555-.44795443-2.219 0l-1.891 1.264-1.89-1.264c-.6718445-.44795443-1.5471555-.44795443-2.219 0l-1.891 1.264-1.89-1.264c-.6718445-.44795443-1.5471555-.44795443-2.219 0l-1.891 1.264-1.89-1.264c-.6718445-.44795443-1.5471555-.44795443-2.219 0l-1.891 1.264-1.89-1.264c-.6718445-.44795443-1.5471555-.44795443-2.219 0l-1.891 1.264-.891-.6c-.61413226-.40920904-1.40370489-.44697464-2.05408954-.09824797-.65038464.34872666-1.05588227 1.02727133-1.05491046 1.76524797v4.2c-1.89059341 7.5691583-2.89731355 15.3319773-3 23.133.10291801 7.8000179 1.10963643 15.5618168 3 23.13v4.2c-.00251451.7399149.40368605 1.4207624 1.056 1.77zm40.944-1.767-.891-.593c-.6711241-.4491298-1.5468759-.4491298-2.218 0l-1.891 1.26-1.89-1.26c-.671435-.4493049-1.547565-.4493049-2.219 0l-1.891 1.26-1.89-1.26c-.6718445-.4479544-1.5471555-.4479544-2.219 0l-1.891 1.26-1.89-1.26c-.6718445-.4479544-1.5471555-.4479544-2.219 0l-1.891 1.26-1.89-1.26c-.6718445-.4479544-1.5471555-.4479544-2.219 0l-1.891 1.26-1.89-1.26c-.6718445-.4479544-1.5471555-.4479544-2.219 0l-1.891 1.26-1.89-1.26c-.6718445-.4479544-1.5471555-.4479544-2.219 0l-.891.593v-3.333h40zm-40-54.666.89.593c.6718445.44795443 1.5471555.44795443 2.219 0l1.891-1.26 1.89 1.26c.6718445.44795443 1.5471555.44795443 2.219 0l1.891-1.26 1.89 1.26c.6718445.44795443 1.5471555.44795443 2.219 0l1.891-1.26 1.89 1.26c.6718445.44795443 1.5471555.44795443 2.219 0l1.891-1.26 1.89 1.26c.6718445.44795443 1.5471555.44795443 2.219 0l1.891-1.26 1.89 1.26c.6718445.44795443 1.5471555.44795443 2.219 0l1.891-1.26 1.89 1.26c.6718445.44795443 1.5471555.44795443 2.219 0l.891-.593v3.333h-40zm-.223 5.333h40.447c1.7475467 7.2060043 2.6787377 14.5857598 2.776 22-.0981497 7.4141785-1.0293281 14.793835-2.776 22h-40.447c-1.74855985-7.2058416-2.68009601-14.5856744-2.777-22 .09832523-7.4142269 1.02984135-14.7939009 2.777-22z"/><path id="Shape" d="m21 37c3.051 0 4.931-1.629 6.354-3.677 1.1551611.476315 2.3968481.7068751 3.646.677 4.661 0 7-4.488 7-7 0-4-3.763-4-5-4-1.2153809.1147674-2.3914119.491766-3.447 1.105-1.0759609.6280927-2.3078866.9384146-3.553.895-.8899905.0057913-1.7759328-.1202423-2.629-.374-1.7503487-.4688313-3.5597469-.67972-5.371-.626-3.813 0-6 2.187-6 6 0 1.816 1.653 7 9 7zm12.224-11.995c2.768.054 2.776 1.082 2.776 1.995 0 1.377-1.538 5-5 5-.8768878.0202897-1.750422-.1151419-2.58-.4.293-.523.572-1.05.844-1.566 1.151-2.191 2.246-4.251 3.96-5.029zm-15.224.995c1.6425449-.0535365 3.2839753.1361834 4.871.563 1.0163229.2964771 2.0703375.4436821 3.129.437.9927307.0364302 1.983332-.1162832 2.919-.45-.511.815-.971 1.689-1.425 2.553-1.594 3.033-3.1 5.897-6.494 5.897-6.7 0-7-4.95-7-5 0-1.717.415-4 4-4z"/><path id="Shape" d="m25 45c11.028 0 20-6.729 20-15s-8.972-15-20-15-20 6.729-20 15 8.972 15 20 15zm0-28c9.925 0 18 5.832 18 13s-8.075 13-18 13-18-5.832-18-13 8.075-13 18-13z"/></g></g></svg>